<svg xmlns="http://www.w3.org/2000/svg" width="100" height="100" viewBox="0 0 100 100"><defs><style>.a{fill:#bf9503;}</style></defs><path class="a" d="M91.976,65.638a56.776,56.776,0,0,1-17.83-2.84,8.15,8.15,0,0,0-7.927,1.671L54.975,72.957C41.935,66,33.9,57.967,27.037,45.025l8.238-10.951a8.083,8.083,0,0,0,1.988-8.19,56.863,56.863,0,0,1-2.851-17.86A8.033,8.033,0,0,0,26.389,0H8.024A8.033,8.033,0,0,0,0,8.024,92.079,92.079,0,0,0,91.976,100,8.033,8.033,0,0,0,100,91.976V73.662A8.034,8.034,0,0,0,91.976,65.638Z"/></svg>