<svg xmlns="http://www.w3.org/2000/svg" width="127.895" height="123.158" viewBox="0 0 127.895 123.158"><defs><style>.a{fill:none;}.b{fill:#03588c;}</style></defs><path class="a" d="M0,0H127.895V123.158H0Z"/><path class="b" d="M63.947,2C29.752,2,2,28.691,2,61.579s27.752,59.579,61.947,59.579,61.947-26.691,61.947-59.579S98.142,2,63.947,2Zm0,17.874c10.283,0,18.584,7.984,18.584,17.874s-8.3,17.874-18.584,17.874S45.363,47.637,45.363,37.747,53.664,19.874,63.947,19.874Zm0,84.6A45.088,45.088,0,0,1,26.779,85.291c.186-11.856,24.779-18.35,37.168-18.35,12.328,0,36.983,6.494,37.168,18.35A45.088,45.088,0,0,1,63.947,104.476Z" transform="translate(0 0)"/></svg>